<?xml version="1.0" encoding="utf-8"?>
<!-- Generated by IcoMoon.io -->
<!DOCTYPE svg PUBLIC "-//W3C//DTD SVG 1.1//EN" "http://www.w3.org/Graphics/SVG/1.1/DTD/svg11.dtd">
<svg version="1.1" xmlns="http://www.w3.org/2000/svg" xmlns:xlink="http://www.w3.org/1999/xlink" width="54" height="50" viewBox="0 0 54 50">
<path fill="#fff" d="M17.215 39.035l-1.395 1.395q-0.279 0.279-0.642 0.279t-0.642-0.279l-13.002-13.002q-0.279-0.279-0.279-0.642t0.279-0.642l13.002-13.002q0.279-0.279 0.642-0.279t0.642 0.279l1.395 1.395q0.279 0.279 0.279 0.642t-0.279 0.642l-10.965 10.965 10.965 10.965q0.279 0.279 0.279 0.642t-0.279 0.642zM33.705 9.263l-10.407 36.021q-0.112 0.363-0.432 0.544t-0.656 0.070l-1.73-0.474q-0.363-0.112-0.544-0.432t-0.070-0.684l10.407-36.021q0.112-0.363 0.432-0.544t0.656-0.070l1.73 0.474q0.363 0.112 0.544 0.432t0.070 0.684zM52.037 27.427l-13.002 13.002q-0.279 0.279-0.642 0.279t-0.642-0.279l-1.395-1.395q-0.279-0.279-0.279-0.642t0.279-0.642l10.965-10.965-10.965-10.965q-0.279-0.279-0.279-0.642t0.279-0.642l1.395-1.395q0.279-0.279 0.642-0.279t0.642 0.279l13.002 13.002q0.279 0.279 0.279 0.642t-0.279 0.642z"></path>
</svg>
