<?xml version="1.0" encoding="utf-8"?>
<!-- Generated by IcoMoon.io -->
<!DOCTYPE svg PUBLIC "-//W3C//DTD SVG 1.1//EN" "http://www.w3.org/Graphics/SVG/1.1/DTD/svg11.dtd">
<svg version="1.1" xmlns="http://www.w3.org/2000/svg" xmlns:xlink="http://www.w3.org/1999/xlink" width="50" height="50" viewBox="0 0 50 50">
<path fill="#fff" d="M46.429 29.157v-17.188q-4.715 2.539-8.538 2.539-2.288 0-4.046-0.893-2.79-1.367-5.134-2.134t-4.967-0.767q-4.827 0-11.244 3.544v16.713q6.836-3.153 12.081-3.153 1.535 0 2.888 0.209t2.734 0.725 2.148 0.865 2.302 1.102l0.781 0.391q1.228 0.614 2.818 0.614 3.348 0 8.175-2.567zM8.929 7.143q0 0.977-0.488 1.786t-1.297 1.283v35.324q0 0.391-0.251 0.642t-0.642 0.251h-1.786q-0.391 0-0.642-0.251t-0.251-0.642v-35.324q-0.809-0.474-1.297-1.283t-0.488-1.786q0-1.479 1.046-2.525t2.525-1.046 2.525 1.046 1.046 2.525zM50 8.929v21.289q0 1.088-0.977 1.59-0.279 0.14-0.474 0.251-6.083 3.237-10.296 3.237-2.455 0-4.408-0.977l-0.781-0.391q-1.786-0.921-2.762-1.339t-2.539-0.809-3.181-0.391q-2.846 0-6.571 1.228t-6.376 2.846q-0.419 0.251-0.921 0.251-0.446 0-0.893-0.223-0.893-0.53-0.893-1.563v-20.703q0-0.977 0.865-1.535 0.977-0.586 2.19-1.186t3.181-1.451 4.255-1.381 4.325-0.53q3.125 0 5.831 0.865t5.831 2.4q1.060 0.53 2.483 0.53 3.404 0 8.65-3.125 0.614-0.335 0.865-0.474 0.865-0.446 1.73 0.056 0.865 0.558 0.865 1.535z"></path>
</svg>
