<?xml version="1.0" encoding="utf-8"?>
<!-- Generated by IcoMoon.io -->
<!DOCTYPE svg PUBLIC "-//W3C//DTD SVG 1.1//EN" "http://www.w3.org/Graphics/SVG/1.1/DTD/svg11.dtd">
<svg version="1.1" xmlns="http://www.w3.org/2000/svg" xmlns:xlink="http://www.w3.org/1999/xlink" width="46" height="50" viewBox="0 0 46 50">
<path fill="#fff" d="M39.286 27.679v13.393q0 0.725-0.53 1.256t-1.256 0.53h-10.714v-10.714h-7.143v10.714h-10.714q-0.725 0-1.256-0.53t-0.53-1.256v-13.393q0-0.028 0.014-0.084t0.014-0.084l16.044-13.225 16.044 13.225q0.028 0.056 0.028 0.167zM45.508 25.753l-1.73 2.065q-0.223 0.251-0.586 0.307h-0.084q-0.363 0-0.586-0.195l-19.308-16.099-19.308 16.099q-0.335 0.223-0.67 0.195-0.363-0.056-0.586-0.307l-1.73-2.065q-0.223-0.279-0.195-0.656t0.307-0.6l20.061-16.713q0.893-0.725 2.121-0.725t2.121 0.725l6.808 5.692v-5.441q0-0.391 0.251-0.642t0.642-0.251h5.357q0.391 0 0.642 0.251t0.251 0.642v11.384l6.11 5.078q0.279 0.223 0.307 0.6t-0.195 0.656z"></path>
</svg>
