<?xml version="1.0" encoding="utf-8"?>
<!-- Generated by IcoMoon.io -->
<!DOCTYPE svg PUBLIC "-//W3C//DTD SVG 1.1//EN" "http://www.w3.org/Graphics/SVG/1.1/DTD/svg11.dtd">
<svg version="1.1" xmlns="http://www.w3.org/2000/svg" xmlns:xlink="http://www.w3.org/1999/xlink" width="50" height="50" viewBox="0 0 50 50">
<path fill="#fff" d="M10.938 0c-5.178 0-9.375 4.897-9.375 10.938 0 5.172 3.077 9.505 7.212 10.644l-1.552 25.299c-0.105 1.715 1.215 3.119 2.934 3.119h1.563c1.719 0 3.039-1.404 2.934-3.119l-1.552-25.299c4.135-1.139 7.212-5.472 7.212-10.644 0-6.041-4.197-10.938-9.375-10.938zM42.448 0l-2.604 15.625h-1.953l-1.302-15.625h-1.302l-1.302 15.625h-1.953l-2.604-15.625h-1.302v20.313c0 0.863 0.7 1.563 1.563 1.563h4.069l-1.534 25.006c-0.105 1.715 1.215 3.119 2.934 3.119h1.563c1.719 0 3.039-1.404 2.934-3.119l-1.534-25.006h4.069c0.863 0 1.563-0.7 1.563-1.563v-20.313h-1.302z"></path>
</svg>
