<?xml version="1.0" encoding="utf-8"?>
<!-- Generated by IcoMoon.io -->
<!DOCTYPE svg PUBLIC "-//W3C//DTD SVG 1.1//EN" "http://www.w3.org/Graphics/SVG/1.1/DTD/svg11.dtd">
<svg version="1.1" xmlns="http://www.w3.org/2000/svg" xmlns:xlink="http://www.w3.org/1999/xlink" width="50" height="50" viewBox="0 0 50 50">
<path fill="#fff" d="M50 28.125v-3.125h-9.438c-0.286-3.549-1.552-6.788-3.5-9.387h7.907l3.421-13.684-3.032-0.758-2.829 11.316h-8.529c-0.044-0.034-0.088-0.067-0.132-0.1 0.328-0.952 0.506-1.974 0.506-3.037 0-5.164-4.197-9.35-9.375-9.35s-9.375 4.186-9.375 9.351c0 1.063 0.178 2.085 0.506 3.037-0.044 0.033-0.088 0.067-0.132 0.1h-8.529l-2.829-11.316-3.032 0.758 3.421 13.684h7.907c-1.947 2.599-3.213 5.838-3.499 9.387h-9.438v3.125h9.442c0.186 2.23 0.757 4.337 1.642 6.238h-6.054l-3.421 13.683 3.032 0.758 2.829-11.317h5.486c2.866 3.81 7.197 6.238 12.044 6.238s9.178-2.428 12.044-6.238h5.486l2.829 11.317 3.032-0.758-3.421-13.683h-6.054c0.885-1.901 1.457-4.008 1.642-6.238h9.442z"></path>
</svg>
