<?xml version="1.0" encoding="utf-8"?>
<!-- Generated by IcoMoon.io -->
<!DOCTYPE svg PUBLIC "-//W3C//DTD SVG 1.1//EN" "http://www.w3.org/Graphics/SVG/1.1/DTD/svg11.dtd">
<svg version="1.1" xmlns="http://www.w3.org/2000/svg" xmlns:xlink="http://www.w3.org/1999/xlink" width="54" height="50" viewBox="0 0 54 50">
<path fill="#fff" d="M16.546 25q-4.52 0.14-7.394 3.571h-3.739q-2.288 0-3.85-1.13t-1.563-3.306q0-9.849 3.46-9.849 0.167 0 1.214 0.586t2.72 1.186 3.32 0.6q1.869 0 3.711-0.642-0.14 1.032-0.14 1.842 0 3.878 2.26 7.143zM46.429 42.773q0 3.348-2.037 5.287t-5.413 1.939h-24.386q-3.376 0-5.413-1.939t-2.037-5.287q0-1.479 0.098-2.888t0.391-3.041 0.739-3.027 1.2-2.72 1.73-2.26 2.386-1.493 3.111-0.558q0.279 0 1.2 0.6t2.037 1.339 2.985 1.339 3.767 0.6 3.767-0.6 2.985-1.339 2.037-1.339 1.2-0.6q1.702 0 3.111 0.558t2.386 1.493 1.73 2.26 1.2 2.72 0.739 3.027 0.391 3.041 0.098 2.888zM17.857 7.143q0 2.958-2.093 5.050t-5.050 2.093-5.050-2.093-2.093-5.050 2.093-5.050 5.050-2.093 5.050 2.093 2.093 5.050zM37.5 17.857q0 4.436-3.139 7.575t-7.575 3.139-7.575-3.139-3.139-7.575 3.139-7.575 7.575-3.139 7.575 3.139 3.139 7.575zM53.571 24.135q0 2.176-1.563 3.306t-3.85 1.13h-3.739q-2.874-3.432-7.394-3.571 2.26-3.265 2.26-7.143 0-0.809-0.14-1.842 1.842 0.642 3.711 0.642 1.646 0 3.32-0.6t2.72-1.186 1.214-0.586q3.46 0 3.46 9.849zM50 7.143q0 2.958-2.093 5.050t-5.050 2.093-5.050-2.093-2.093-5.050 2.093-5.050 5.050-2.093 5.050 2.093 2.093 5.050z"></path>
</svg>
