<?xml version="1.0" encoding="utf-8"?>
<!-- Generated by IcoMoon.io -->
<!DOCTYPE svg PUBLIC "-//W3C//DTD SVG 1.1//EN" "http://www.w3.org/Graphics/SVG/1.1/DTD/svg11.dtd">
<svg version="1.1" xmlns="http://www.w3.org/2000/svg" xmlns:xlink="http://www.w3.org/1999/xlink" width="50" height="50" viewBox="0 0 50 50">
<path fill="#fff" d="M10.714 33.036v1.786q0 0.363-0.265 0.628t-0.628 0.265h-1.786q-0.363 0-0.628-0.265t-0.265-0.628v-1.786q0-0.363 0.265-0.628t0.628-0.265h1.786q0.363 0 0.628 0.265t0.265 0.628zM10.714 25.893v1.786q0 0.363-0.265 0.628t-0.628 0.265h-1.786q-0.363 0-0.628-0.265t-0.265-0.628v-1.786q0-0.363 0.265-0.628t0.628-0.265h1.786q0.363 0 0.628 0.265t0.265 0.628zM10.714 18.75v1.786q0 0.363-0.265 0.628t-0.628 0.265h-1.786q-0.363 0-0.628-0.265t-0.265-0.628v-1.786q0-0.363 0.265-0.628t0.628-0.265h1.786q0.363 0 0.628 0.265t0.265 0.628zM42.857 33.036v1.786q0 0.363-0.265 0.628t-0.628 0.265h-26.786q-0.363 0-0.628-0.265t-0.265-0.628v-1.786q0-0.363 0.265-0.628t0.628-0.265h26.786q0.363 0 0.628 0.265t0.265 0.628zM42.857 25.893v1.786q0 0.363-0.265 0.628t-0.628 0.265h-26.786q-0.363 0-0.628-0.265t-0.265-0.628v-1.786q0-0.363 0.265-0.628t0.628-0.265h26.786q0.363 0 0.628 0.265t0.265 0.628zM42.857 18.75v1.786q0 0.363-0.265 0.628t-0.628 0.265h-26.786q-0.363 0-0.628-0.265t-0.265-0.628v-1.786q0-0.363 0.265-0.628t0.628-0.265h26.786q0.363 0 0.628 0.265t0.265 0.628zM46.429 38.393v-23.214q0-0.363-0.265-0.628t-0.628-0.265h-41.071q-0.363 0-0.628 0.265t-0.265 0.628v23.214q0 0.363 0.265 0.628t0.628 0.265h41.071q0.363 0 0.628-0.265t0.265-0.628zM50 8.036v30.357q0 1.842-1.311 3.153t-3.153 1.311h-41.071q-1.842 0-3.153-1.311t-1.311-3.153v-30.357q0-1.842 1.311-3.153t3.153-1.311h41.071q1.842 0 3.153 1.311t1.311 3.153z"></path>
</svg>
