<?xml version="1.0" encoding="utf-8"?>
<!-- Generated by IcoMoon.io -->
<!DOCTYPE svg PUBLIC "-//W3C//DTD SVG 1.1//EN" "http://www.w3.org/Graphics/SVG/1.1/DTD/svg11.dtd">
<svg version="1.1" xmlns="http://www.w3.org/2000/svg" xmlns:xlink="http://www.w3.org/1999/xlink" width="50" height="50" viewBox="0 0 50 50">
<path fill="#fff" d="M10.128 42.857l2.539-2.539-6.557-6.557-2.539 2.539v2.985h3.571v3.571h2.985zM24.721 16.964q0-0.614-0.614-0.614-0.279 0-0.474 0.195l-15.123 15.123q-0.195 0.195-0.195 0.474 0 0.614 0.614 0.614 0.279 0 0.474-0.195l15.123-15.123q0.195-0.195 0.195-0.474zM23.214 11.607l11.607 11.607-23.214 23.214h-11.607v-11.607zM42.271 14.286q0 1.479-1.032 2.511l-4.632 4.632-11.607-11.607 4.632-4.604q1.004-1.060 2.511-1.060 1.479 0 2.539 1.060l6.557 6.529q1.032 1.088 1.032 2.539z"></path>
</svg>
